<svg id="Capa_1" data-name="Capa 1" xmlns="http://www.w3.org/2000/svg" viewBox="0 0 425.2 425.2"><defs><style>.cls-1{fill:#adce41;}</style></defs><path class="cls-1" d="M110.65,228.42c0-42.69,32.59-68.09,52.91-79.79,2.58-1.48,5.36,1.6,3.39,3.76a98.11,98.11,0,0,0-18.71,29.35,55.24,55.24,0,0,1,14.21-1.85c28.61,0,51.8,21.73,51.8,48.53S191.06,277,162.45,277,110.65,255.22,110.65,228.42Z"/><path class="cls-1" d="M230,228.42c0-42.69,32.6-68.09,52.92-79.79,2.58-1.48,5.36,1.6,3.39,3.76a97.93,97.93,0,0,0-18.72,29.35,55.35,55.35,0,0,1,14.21-1.85c28.61,0,51.8,21.73,51.8,48.53S310.42,277,281.81,277,230,255.22,230,228.42Z"/></svg>