<?xml version="1.0" encoding="UTF-8"?><svg id="a" xmlns="http://www.w3.org/2000/svg" viewBox="0 0 1080 1080"><defs><style>.b{fill:#77e5e5;}.c{fill:#231969;opacity:.2;}.d{fill:#fff;}.e{fill:#e16576;}.f{fill:#325b3d;}.g{fill:#7478b9;}.h{fill:#fbf3eb;}</style></defs><g><rect class="b" x="289.21" y="225.85" width="550.73" height="659.31" rx="26.05" ry="26.05"/><polygon class="d" points="792.74 273.05 792.74 702.43 657.22 837.94 336.41 837.94 336.41 273.05 792.74 273.05"/><path class="e" d="M465.57,182.76h198.02c13.96,0,25.3,11.34,25.3,25.3v84.85h-248.62v-84.85c0-13.96,11.34-25.3,25.3-25.3Z"/><rect class="c" x="440.27" y="245.5" width="248.62" height="47.41"/><path class="d" d="M587.66,182.76c0,12.75-10.33,23.08-23.08,23.08s-23.08-10.33-23.08-23.08,10.33-23.08,23.08-23.08,23.08,10.33,23.08,23.08Z"/><polygon class="g" points="792.74 702.43 657.22 702.43 657.22 837.95 792.74 702.43"/><polygon class="c" points="744.57 702.43 657.22 789.78 657.22 837.95 792.74 702.43 744.57 702.43"/><path class="h" d="M591.67,331.11l-13,3.94c-9.86,2.99-19.93,2.99-29.8,0l-13-3.94c-20.27-6.14-34.74,17.26-28.7,42.51l19.98,83.56c1.31,5.47,6.23,9.46,11.49,9.46h0s.04,0,.05,0c2.56-.01,4.65-2.04,4.85-4.59,1.68-21.93,10.1-54.27,20.23-54.27s18.55,32.34,20.23,54.27c.2,2.55,2.29,4.58,4.85,4.59,.02,0,.03,0,.05,0h0c5.26,0,10.18-3.99,11.49-9.46l19.98-83.56c6.04-25.25-8.43-48.65-28.7-42.51Z"/></g><g><path class="f" d="M799.84,218.16h-103.41c-1.8-24.08-21.97-43.09-46.49-43.09h-55.55c-3.43-13.27-15.5-23.08-29.81-23.08s-26.37,9.81-29.81,23.08h-55.55c-24.53,0-44.69,19.01-46.49,43.09h-103.41c-26.36,0-47.8,21.45-47.8,47.8V845.04c0,26.36,21.45,47.82,47.8,47.82h470.51c26.36,0,47.8-21.46,47.8-47.82V265.96c0-26.36-21.45-47.8-47.8-47.8Zm-235.26-50.77c5.68,0,10.64,3.09,13.3,7.68,1.32,2.26,2.08,4.9,2.08,7.7s-.75,5.44-2.08,7.7c-2.66,4.59-7.62,7.68-13.3,7.68s-10.64-3.09-13.3-7.68c-1.32-2.26-2.08-4.9-2.08-7.7s.75-5.43,2.08-7.7c2.66-4.59,7.62-7.68,13.3-7.68Zm-85.35,23.08h55.55c3.43,13.26,15.5,23.08,29.81,23.08s26.37-9.82,29.81-23.08h55.55c16.04,0,29.28,12.12,31.04,27.7,.15,1.17,.22,2.36,.22,3.56v63.49h-233.21v-63.49c0-1.2,.06-2.39,.22-3.56,1.76-15.58,15-27.7,31.04-27.7Zm305.81,504.26h-127.81c-4.25,0-7.7,3.45-7.7,7.7v127.83H344.12V280.74h88.46v12.16c0,4.25,3.43,7.7,7.7,7.7h248.6c4.26,0,7.7-3.45,7.7-7.7v-12.16h88.46v413.98Zm-10.88,15.4l-109.23,109.23v-109.23h109.23Zm58.09,134.92c0,17.87-14.53,32.42-32.41,32.42H329.32c-17.87,0-32.41-14.55-32.41-32.42V265.96c0-17.87,14.53-32.41,32.41-32.41h103.26v31.79h-96.16c-4.26,0-7.7,3.45-7.7,7.7V837.95c0,4.25,3.43,7.7,7.7,7.7h320.81c.25,0,.49-.02,.75-.03,.49-.05,.99-.15,1.48-.31,.71-.2,1.4-.52,2.03-.95,.42-.26,.82-.58,1.17-.95v-.02l135.51-135.51h.02c.18-.18,.35-.37,.51-.55v-.02c.32-.4,.62-.82,.85-1.26,.23-.45,.42-.92,.57-1.4,.06-.23,.12-.46,.17-.69,.05-.22,.08-.42,.11-.63,.03-.31,.05-.6,.05-.89V273.05c0-4.25-3.43-7.7-7.7-7.7h-96.16v-31.79h103.26c17.87,0,32.41,14.53,32.41,32.41V845.04Z"/><path class="f" d="M519.66,458.96c2.14,8.91,10.12,15.38,19.08,15.38,6.5-.03,11.98-5.17,12.49-11.7,1.65-21.52,8.28-41.38,12.55-46.42,4.26,5.03,10.92,24.89,12.56,46.42,.49,6.53,5.97,11.67,12.56,11.7,8.87,0,16.86-6.47,18.98-15.38l19.98-83.55c4.17-17.43-.03-35.18-10.68-45.22-7.57-7.14-17.69-9.5-27.74-6.45l-12.99,3.94c-8.41,2.56-16.93,2.56-25.33,0l-13.01-3.94c-10.05-3.05-20.17-.69-27.74,6.45-10.65,10.04-14.84,27.79-10.68,45.22l19.98,83.55Zm1.26-117.57c2.52-2.37,5.37-3.57,8.53-3.57,1.34,0,2.74,.23,4.19,.66l12.99,3.94c11.38,3.45,22.91,3.45,34.27,0l12.99-3.94c4.83-1.46,9.11-.48,12.72,2.91,5.51,5.19,9.58,16.61,6.27,30.44l-19.98,83.57c-.25,1.06-.85,1.94-1.57,2.56-1.45-13.06-7.85-57.86-27.56-57.86s-26.11,44.8-27.56,57.86c-.72-.62-1.31-1.49-1.57-2.56l-19.98-83.57c-3.31-13.83,.77-25.25,6.27-30.44Z"/><path class="f" d="M447.6,518.68c-3.44-2.5-8.25-1.74-10.75,1.7l-30.03,41.28-12.56-13.16c-2.93-3.08-7.81-3.19-10.88-.25-3.07,2.94-3.19,7.81-.25,10.88l18.93,19.83c1.46,1.53,3.47,2.38,5.57,2.38,.17,0,.34,0,.51-.02,2.28-.15,4.37-1.31,5.71-3.15l35.45-48.74c2.5-3.44,1.74-8.25-1.7-10.75Z"/><path class="f" d="M447.6,619.41c-3.44-2.5-8.25-1.74-10.75,1.7l-30.03,41.28-12.56-13.16c-2.93-3.07-7.81-3.19-10.88-.25-3.07,2.94-3.19,7.81-.25,10.88l18.93,19.83c1.46,1.53,3.47,2.38,5.57,2.38,.17,0,.34,0,.51-.02,2.28-.15,4.37-1.31,5.71-3.15l35.45-48.74c2.5-3.44,1.74-8.25-1.7-10.75Z"/><path class="f" d="M447.6,720.14c-3.44-2.5-8.25-1.74-10.75,1.7l-30.03,41.28-12.56-13.16c-2.93-3.07-7.81-3.19-10.88-.25-3.07,2.94-3.19,7.81-.25,10.88l18.93,19.83c1.46,1.53,3.47,2.38,5.57,2.38,.17,0,.34,0,.51-.02,2.28-.15,4.37-1.31,5.71-3.15l35.45-48.74c2.5-3.44,1.74-8.25-1.7-10.75Z"/><path class="f" d="M473.99,536c0,4.25,3.45,7.7,7.7,7.7h262.29c4.25,0,7.7-3.45,7.7-7.7s-3.45-7.7-7.7-7.7H481.69c-4.25,0-7.7,3.45-7.7,7.7Z"/><path class="f" d="M743.98,552.14H481.69c-4.25,0-7.7,3.45-7.7,7.7s3.45,7.7,7.7,7.7h262.29c4.25,0,7.7-3.45,7.7-7.7s-3.45-7.7-7.7-7.7Z"/><path class="f" d="M743.98,633.23H481.69c-4.25,0-7.7,3.45-7.7,7.7s3.45,7.7,7.7,7.7h262.29c4.25,0,7.7-3.45,7.7-7.7s-3.45-7.7-7.7-7.7Z"/><path class="f" d="M743.98,657.07H481.69c-4.25,0-7.7,3.45-7.7,7.7s3.45,7.7,7.7,7.7h262.29c4.25,0,7.7-3.45,7.7-7.7s-3.45-7.7-7.7-7.7Z"/><path class="f" d="M626.88,738.16h-145.19c-4.25,0-7.7,3.45-7.7,7.7s3.45,7.7,7.7,7.7h145.19c4.25,0,7.7-3.45,7.7-7.7s-3.45-7.7-7.7-7.7Z"/><path class="f" d="M626.88,762h-145.19c-4.25,0-7.7,3.45-7.7,7.7s3.45,7.7,7.7,7.7h145.19c4.25,0,7.7-3.45,7.7-7.7s-3.45-7.7-7.7-7.7Z"/></g></svg>