<?xml version="1.0" encoding="UTF-8"?><svg id="a" xmlns="http://www.w3.org/2000/svg" viewBox="0 0 1080 1080"><defs><style>.b{fill:#ffdec7;}.c{fill:none;stroke:#325b3d;stroke-miterlimit:10;stroke-width:11px;}.d{fill:#9fdbf3;}.e{fill:#dad7e5;}.f{fill:#f6ccaf;}.g{fill:#edebf2;}.h{fill:#b2e5fb;}.i{fill:#9dcc6b;}.j{fill:#b5e08c;}.k{fill:#325b3d;}.l{fill:#8bd1ea;}</style></defs><g><path class="i" d="M774.77,869.42v114.65H305.23v-114.65c0-24.52,16.96-45.65,40.82-51,64.07-14.24,29.67-6.61,144.64-32.09,5.87-1.3,10.17-6.52,10.17-12.65v-32.74c24.4,11.14,53.85,11.14,78.26,0,0,29.88-3.03,42.45,10.17,45.39l144.64,32.09c23.87,5.35,40.82,26.48,40.82,51Z"/><path class="j" d="M774.77,869.42v88.56H370.45c-21.61,0-39.13-4.48-39.13-26.09,0-95.52-1.58-96.45,4.56-110.08,8.22-3.62,156.15-35.77,154.84-35.48,13.51-2.99,10.15-16.5,10.15-45.38,25.33,11.44,54.53,10.83,78.26,0v32.74c0,6.07,4.22,11.33,10.15,12.65l144.67,32.09c23.87,5.35,40.82,26.48,40.82,51Z"/><path class="f" d="M638.08,797.17l-98.08,82.56-98.08-82.56,48.78-10.83c5.87-1.3,10.17-6.52,10.17-12.65v-31.95c25.35,10.08,52.89,10.09,78.26,0v31.95c0,6.13,4.3,11.35,10.17,12.65l48.78,10.83Z"/><path class="i" d="M409.57,905.81v78.26h-26.09v-78.26c0-17.26,26.09-17.23,26.09,0Z"/><path class="i" d="M696.51,905.81v78.26h-26.09v-78.26c0-17.26,26.09-17.23,26.09,0Z"/><rect class="i" x="409.57" y="514.53" width="260.85" height="52.17"/><path class="j" d="M670.43,514.53v26.09h-208.68c-10.52,0-26.09-8.22-26.09-26.09h234.77Z"/><path class="f" d="M644.34,566.7v79.82c-.52,34.95-18.26,65.73-45,84.26-68.53,47.12-162.43-.94-163.69-84.26v-79.82h208.68Z"/><path class="b" d="M644.34,566.7v78.26c0,35.61-17.87,67.04-45,85.82-67.61,22.82-137.6-27.65-137.6-98.86v-65.21h182.6Z"/><path class="f" d="M696.51,599.31c0,18-14.61,32.61-32.61,32.61h-19.56v-65.21h19.56c18.08,0,32.61,14.55,32.61,32.61Z"/><path class="b" d="M693.77,586.27c-9.75,22.57-31.39,19.56-49.43,19.56v-39.13c17.45,0,40.05-3.12,49.43,19.56Z"/><path class="f" d="M435.66,566.7v65.21h-19.56c-23.99,0-39.23-24.91-29.87-45.65,9.28-22.43,31.7-19.56,49.43-19.56Z"/><path class="b" d="M435.66,566.7v39.13c-17.7,0-39.58,3.25-49.43-19.56,9.61-23.22,33.72-19.56,49.43-19.56Z"/><path class="i" d="M670.43,514.53H409.57c0-36,14.61-68.6,38.22-92.21,82.55-82.55,222.64-22.74,222.64,92.21Z"/><path class="j" d="M667.82,488.45h-202.79c-16.55,0-29.54-15.35-25.55-31.41,5.32-21.44,17.57-42.04,22.52-46.98,77.02-57.65,186.9-14.29,205.81,78.39Z"/><path class="d" d="M579.13,475.4c0,20.81-16.65,39.13-39.13,39.13-39.94,0-53.63-52.62-20.35-72.52,25.17-15.66,59.47,2.2,59.47,33.39Z"/><path class="h" d="M573.39,495.75c-34.43,21.42-75.3-19.08-53.74-53.74,34.77-21.64,75.11,19.38,53.74,53.74Z"/><path class="l" d="M540,488.45c-7.54,0-14.14-6.43-12.78-15.65,1.29-7.91,10.23-12.63,17.74-9.39,13.38,5.6,8.96,25.05-4.95,25.05Z"/><path class="e" d="M488.48,672.87l-52.82-26.35v-27.65c4.27,0,1.47-.76,64.56,30.78,15.45,7.57,3.47,31.32-11.74,23.22Z"/><path class="e" d="M644.34,618.87v27.65l-52.82,26.35c-15.22,8.11-27.19-15.65-11.74-23.22,63.36-31.68,60.37-30.78,64.56-30.78Z"/><path class="b" d="M638.08,797.17l-85.04,71.6-75.9-63.91c47.16-14.42,49.95-9.43,49.81-56.47,15.58,2.36,34.92,.44,52.17-7.43v32.74c0,6.07,4.22,11.33,10.15,12.65l48.81,10.83Z"/><path class="e" d="M621,710.69c-41.01,51.27-120.3,51.62-161.99,0,9.64-24.15,12.45-37.98,29.09-46.3,54.28-27.14,52.76-25.53,103.82,0,16.82,8.41,19.55,22.41,29.09,46.3Z"/><path class="g" d="M621,710.69c-6.26,7.83-13.7,14.61-22.04,20.22-39.57,13.02-81.31,1.54-108.58-27.23-3.38-3.57-4.13-8.91-2.31-13.48,6.8-17.05,9.92-30.76,26.11-38.86,30.74-13.66,44.09-3.7,71.47,9.91,23.8,11.9,22.68,17.69,35.35,49.43Z"/></g><g><path class="k" d="M736.78,805.69l-144.6-32v-23.74c38.58-19.25,65.21-59.03,65.21-105h6.51c47.9,0,63.8-65.53,19.57-86.72v-43.71c0-79.11-64.36-143.47-143.47-143.47s-143.47,64.36-143.47,143.47v43.71c-44.15,21.13-28.49,86.72,19.56,86.72h6.52c0,45.98,26.64,85.75,65.23,105l.04,23.65-144.68,32.09c-30.03,6.73-51.01,32.93-51.01,63.72v114.65c0,17.25,26.09,17.27,26.09,0v-114.65c0-18.49,12.6-34.23,30.6-38.27l89.61-19.87,93.11,78.43c4.84,4.08,11.92,4.11,16.8,0l93.11-78.43,89.58,19.87c18.04,4.04,30.63,19.78,30.63,38.27v114.65c0,17.25,26.09,17.27,26.09,0v-114.65c0-30.79-20.98-56.99-51.04-63.73Zm-125.26-142.78l19.36-9.68c-.91,10.07-3.47,19.66-7.39,28.53-2.72-6.81-5.74-12.49-11.97-18.85Zm-155.01,18.84c-3.92-8.87-6.48-18.45-7.39-28.52l19.36,9.68c-6.13,6.25-9.18,11.86-11.97,18.84Zm-33.89-154.18h234.77v26.09h-234.77v-26.09Zm91.3-52.17c0-14.39,11.7-26.09,26.09-26.09s26.09,11.7,26.09,26.09-11.7,26.09-26.09,26.09-26.09-11.7-26.09-26.09Zm-19.53,171.29l-45.68-22.84v-44.11h182.59v44.11l-45.68,22.84c-33.61-16.73-44.61-23.2-91.23,0Zm169.51-27.82h-6.51v-39.13h6.51c25.89,0,25.87,39.13,0,39.13Zm-123.9-221.73c60.32,0,110.16,45.73,116.66,104.34h-71.75c20.75-35.57-5.6-78.26-44.91-78.26s-65.61,42.76-44.91,78.26h-71.75c6.51-58.61,56.35-104.34,116.66-104.34Zm-123.91,221.73c-25.89,0-25.87-39.13,0-39.13h6.52v39.13h-6.52Zm58.03,89.13c6.89-17.28,8.79-26.44,19.81-31.95,23.26-11.57,42-25.38,64.92-13.55,40.75,20.28,34.36,13.73,47.03,45.49-36.07,37.68-95.69,37.68-131.76,0Zm65.88,154.68l-69.47-58.5,22.99-5.1c11.81-2.62,20.39-13.3,20.39-25.38v-14.37c17.66,4.03,34.51,4.03,52.17,0v14.37c0,12.09,8.58,22.77,20.39,25.38l22.99,5.1-69.47,58.51Z"/><path class="k" d="M383.49,905.82v78.26c0,17.25,26.09,17.27,26.09,0v-78.26c0-17.25-26.09-17.27-26.09,0Z"/><path class="k" d="M670.43,905.82v78.26c0,17.25,26.09,17.27,26.09,0v-78.26c0-17.25-26.09-17.27-26.09,0Z"/><path class="k" d="M544.96,463.4c-7.52-3.24-16.45,1.5-17.74,9.39-1.34,9.15,5.23,15.65,12.78,15.65,14.06,0,18.26-19.48,4.95-25.05Z"/></g><path class="c" d="M205.97,423.83l20.2,40.92c1.41,2.85,4.12,4.82,7.27,5.28l45.16,6.56c7.91,1.15,11.07,10.88,5.35,16.46l-32.68,31.85c-2.27,2.22-3.31,5.41-2.78,8.54l7.71,44.98c1.35,7.88-6.92,13.89-14,10.17l-40.39-21.24c-2.81-1.48-6.17-1.48-8.98,0l-40.39,21.24c-7.08,3.72-15.35-2.29-14-10.17l7.71-44.98c.54-3.13-.5-6.32-2.78-8.54l-32.68-31.85c-5.73-5.58-2.57-15.31,5.35-16.46l45.16-6.56c3.14-.46,5.86-2.43,7.27-5.28l20.2-40.92c3.54-7.17,13.77-7.17,17.31,0Z"/><path class="c" d="M295.52,190.11l20.2,40.92c1.41,2.85,4.12,4.82,7.27,5.28l45.16,6.56c7.91,1.15,11.07,10.88,5.35,16.46l-32.68,31.85c-2.27,2.22-3.31,5.41-2.78,8.54l7.71,44.98c1.35,7.88-6.92,13.89-14,10.17l-40.39-21.24c-2.81-1.48-6.17-1.48-8.98,0l-40.39,21.24c-7.08,3.72-15.35-2.29-14-10.17l7.71-44.98c.54-3.13-.5-6.32-2.78-8.54l-32.68-31.85c-5.73-5.58-2.57-15.31,5.35-16.46l45.16-6.56c3.14-.46,5.86-2.43,7.27-5.28l20.2-40.92c3.54-7.17,13.77-7.17,17.31,0Z"/><path class="c" d="M538.83,84.74l20.2,40.92c1.41,2.85,4.12,4.82,7.27,5.28l45.16,6.56c7.91,1.15,11.07,10.88,5.35,16.46l-32.68,31.85c-2.27,2.22-3.31,5.41-2.78,8.54l7.71,44.98c1.35,7.88-6.92,13.89-14,10.17l-40.39-21.24c-2.81-1.48-6.17-1.48-8.98,0l-40.39,21.24c-7.08,3.72-15.35-2.29-14-10.17l7.71-44.98c.54-3.13-.5-6.32-2.78-8.54l-32.68-31.85c-5.73-5.58-2.57-15.31,5.35-16.46l45.16-6.56c3.14-.46,5.86-2.43,7.27-5.28l20.2-40.92c3.54-7.17,13.77-7.17,17.31,0Z"/><path class="c" d="M784.04,190.11l20.2,40.92c1.41,2.85,4.12,4.82,7.27,5.28l45.16,6.56c7.91,1.15,11.07,10.88,5.35,16.46l-32.68,31.85c-2.27,2.22-3.31,5.41-2.78,8.54l7.71,44.98c1.35,7.88-6.92,13.89-14,10.17l-40.39-21.24c-2.81-1.48-6.17-1.48-8.98,0l-40.39,21.24c-7.08,3.72-15.35-2.29-14-10.17l7.71-44.98c.54-3.13-.5-6.32-2.78-8.54l-32.68-31.85c-5.73-5.58-2.57-15.31,5.35-16.46l45.16-6.56c3.14-.46,5.86-2.43,7.27-5.28l20.2-40.92c3.54-7.17,13.77-7.17,17.31,0Z"/><path class="c" d="M891.33,433.41l20.2,40.92c1.41,2.85,4.12,4.82,7.27,5.28l45.16,6.56c7.91,1.15,11.07,10.88,5.35,16.46l-32.68,31.85c-2.27,2.22-3.31,5.41-2.78,8.54l7.71,44.98c1.35,7.88-6.92,13.89-14,10.17l-40.39-21.24c-2.81-1.48-6.17-1.48-8.98,0l-40.39,21.24c-7.08,3.72-15.35-2.29-14-10.17l7.71-44.98c.54-3.13-.5-6.32-2.78-8.54l-32.68-31.85c-5.73-5.58-2.57-15.31,5.35-16.46l45.16-6.56c3.14-.46,5.86-2.43,7.27-5.28l20.2-40.92c3.54-7.17,13.77-7.17,17.31,0Z"/></svg>