<?xml version="1.0" encoding="UTF-8"?><svg id="a" xmlns="http://www.w3.org/2000/svg" viewBox="0 0 1080 1080"><defs><style>.b{fill:#231969;opacity:.2;}.c{fill:#fff;}.d{fill:#fffaf3;}.e{fill:#7ecbef;}.f{fill:#325b3d;}.g{fill:#7478b9;}</style></defs><path class="g" d="M855.14,594.16c0,181.08-315.14,327.87-315.14,327.87,0,0-315.14-146.79-315.14-327.87v-219.35c0-34.17,18.53-65.65,48.41-82.23l221.1-122.7c28.38-15.75,62.88-15.75,91.27,0l221.1,122.7c29.88,16.58,48.41,48.06,48.41,82.23v219.35Z"/><path class="e" d="M540,866.38c-27.67-14.48-78.7-43.08-128.92-81.07-112.81-85.33-136.49-151.05-136.49-191.16v-219.35c0-16.09,8.74-30.94,22.81-38.74l221.1-122.71c6.56-3.64,14-5.57,21.5-5.57s14.94,1.92,21.5,5.57l221.1,122.71c14.07,7.81,22.81,22.65,22.81,38.74v219.35c0,40.11-23.68,105.83-136.49,191.16-50.23,37.99-101.25,66.59-128.92,81.07Z"/><path class="d" d="M617.41,346.64l-36.08,10.93c-27.36,8.3-55.31,8.3-82.67,0l-36.08-10.93c-56.25-17.04-96.39,47.89-79.64,117.94l55.45,231.85c3.63,15.19,17.27,26.26,31.88,26.26h0s.1,0,.14,0c7.1-.03,12.91-5.66,13.45-12.74,4.66-60.85,28.02-150.58,56.13-150.58s51.47,89.72,56.13,150.58c.54,7.08,6.36,12.71,13.46,12.74,.05,0,.09,0,.14,0h0c14.6,0,28.25-11.07,31.88-26.26l55.45-231.85c16.75-70.05-23.39-134.98-79.64-117.94Z"/><path class="b" d="M483.61,711.71c-1.27,6.23-6.69,10.94-13.18,10.98h-.15c-14.61,0-28.25-11.07-31.89-26.25l-55.45-231.86c-16.76-70.04,23.4-134.97,79.64-117.94l1.25,.37c-35.88,12.86-56.65,63.69-43.76,117.57l55.45,231.86c1.38,5.83,4.25,11.06,8.08,15.28Z"/><path class="b" d="M633.52,711.71c-1.17,1.27-2.42,2.45-3.73,3.54-5.7,4.66-12.76,7.44-20.07,7.44h-.13c-7.11-.03-12.92-5.65-13.46-12.73-3.59-46.79-18.22-110.65-37.57-137.67,5.83-8.12,12.08-12.91,18.58-12.91,28.1,0,51.45,89.72,56.13,150.58,.05,.6,.13,1.19,.26,1.75Z"/><path class="c" d="M768.79,416.81c-54.12,10.38-62.54,18.8-72.92,72.92-10.39-54.12-18.8-62.54-72.92-72.92,54.12-10.38,62.53-18.8,72.92-72.92,10.38,54.12,18.8,62.54,72.92,72.92Z"/><path class="c" d="M483.61,559.38c-54.12,10.39-62.53,18.8-72.92,72.92-10.38-54.12-18.8-62.53-72.92-72.92,54.12-10.39,62.54-18.8,72.92-72.92,10.38,54.12,18.8,62.53,72.92,72.92Z"/><path class="c" d="M768.79,416.81c-54.12,10.38-62.54,18.8-72.92,72.92-10.39-54.12-18.8-62.54-72.92-72.92,54.12-10.38,62.53-18.8,72.92-72.92,10.38,54.12,18.8,62.54,72.92,72.92Z"/><path class="c" d="M483.61,559.38c-54.12,10.39-62.53,18.8-72.92,72.92-10.38-54.12-18.8-62.53-72.92-72.92,54.12-10.39,62.54-18.8,72.92-72.92,10.38,54.12,18.8,62.53,72.92,72.92Z"/><path class="f" d="M810.67,285.48l-221.1-122.7c-31.04-17.23-68.11-17.23-99.15,0l-221.1,122.7c-32.44,18-52.59,52.23-52.59,89.32v219.35c0,43.1,17.12,87.68,50.88,132.5,26.59,35.31,63.58,70.91,109.93,105.82,78.56,59.16,158.23,96.54,159.03,96.91,1.09,.51,2.26,.76,3.43,.76s2.34-.25,3.43-.76c1.05-.49,106-49.77,194.32-125.16,3.41-2.91,3.81-8.03,.9-11.44-2.91-3.41-8.04-3.81-11.44-.9-77.68,66.3-168.58,112.08-187.21,121.15-15.95-7.76-84.86-42.4-152.9-93.67-70.31-52.99-154.12-135.07-154.12-225.19v-219.35c0-31.2,16.95-59.99,44.23-75.13l221.1-122.7c26.1-14.49,57.28-14.49,83.39,0l221.1,122.7c27.28,15.14,44.23,43.93,44.23,75.13v219.35c0,48.37-23.88,99.11-70.98,150.81-3.02,3.32-2.78,8.45,.53,11.47,3.32,3.02,8.45,2.78,11.47-.53,49.91-54.79,75.21-109.21,75.21-161.75v-219.35c0-37.09-20.15-71.32-52.59-89.32Z"/><path class="f" d="M396.91,271.55l-103.45,57.41c-16.65,9.24-26.99,26.8-26.99,45.84v219.35c0,76,75.98,149.42,139.71,197.63,51.22,38.74,103.47,67.87,130.06,81.79,1.18,.62,2.47,.93,3.76,.93s2.59-.31,3.77-.93c26.59-13.92,78.83-43.04,130.06-81.79,63.74-48.21,139.71-121.63,139.71-197.63v-219.35c0-19.04-10.34-36.61-26.99-45.84l-221.1-122.71c-7.76-4.31-16.56-6.59-25.44-6.59s-17.68,2.28-25.44,6.59l-57.9,32.13c-3.92,2.18-5.33,7.12-3.16,11.04,2.17,3.92,7.12,5.34,11.04,3.16l57.9-32.13c5.36-2.97,11.43-4.55,17.56-4.55s12.21,1.57,17.56,4.55l221.1,122.71c11.49,6.38,18.63,18.5,18.63,31.65v219.35c0,38.27-23.12,101.37-133.27,184.68-47.97,36.28-96.93,64.01-124.03,78.37-27.1-14.36-76.06-42.09-124.03-78.37-110.15-83.32-133.27-146.42-133.27-184.68v-219.35c0-13.14,7.14-25.27,18.63-31.65l103.45-57.41c3.92-2.18,5.33-7.12,3.16-11.04-2.18-3.92-7.12-5.34-11.04-3.16Z"/><path class="f" d="M336.25,551.4c-3.83,.73-6.59,4.08-6.59,7.97s2.76,7.24,6.59,7.97c51.08,9.81,56.67,15.39,66.47,66.47,.73,3.83,4.08,6.59,7.97,6.59,2.08,0,3.99-.78,5.46-2.11l14.35,60.01c4.5,18.83,21.22,32.49,39.78,32.49h.18c11.19-.05,20.64-8.95,21.5-20.23,2.42-31.39,9.64-68.23,18.9-96.19,11.45-34.62,22.84-46.89,29.14-46.89s17.7,12.28,29.14,46.89c9.26,27.94,16.48,64.8,18.88,96.19,.88,11.28,10.33,20.18,21.51,20.23h.18c18.56,0,35.28-13.66,39.78-32.49l47.98-200.63c3.18-.63,5.73-3.13,6.36-6.41,9.81-51.1,15.39-56.68,66.47-66.49,3.83-.73,6.59-4.08,6.59-7.97s-2.76-7.24-6.59-7.97c-51.08-9.81-56.67-15.39-66.47-66.47-.73-3.83-4.08-6.59-7.97-6.59s-7.24,2.76-7.97,6.59c-1.2,6.28-2.35,11.87-3.51,16.85-1.67-1.93-3.44-3.77-5.29-5.51-12.57-11.85-27.65-17.94-43.77-17.94-6.61,0-13.41,1.02-20.26,3.1l-36.08,10.93c-25.86,7.86-52.1,7.86-77.97,0l-36.08-10.93c-23.56-7.14-46.31-1.87-64.04,14.84-26.19,24.68-36.34,68.94-25.85,112.76l14.65,61.24c-8.64,13.48-22.91,17.83-53.45,23.69Zm398.82-134.6c-11.37,3.93-19.66,8.75-26.04,15.62-5.6,6.02-9.73,13.64-13.15,23.57-1.2-3.49-2.5-6.69-3.91-9.64-7.18-15.04-17.45-23.4-35.28-29.55,13.98-4.82,23.32-11.01,30.17-20.7,3.59-5.1,6.49-11.17,9.03-18.49,2.13,6.15,4.51,11.41,7.35,15.96,6.98,11.17,16.68,18.01,31.84,23.23Zm-344.21,45.89c-9.01-37.67-.5-76.72,21.19-97.16,9.42-8.88,25.43-18.02,48.19-11.12l36.08,10.93c29,8.8,58.39,8.8,87.39,0l36.08-10.93c22.75-6.9,38.77,2.24,48.19,11.12,3.93,3.7,7.44,8.04,10.49,12.84-8.26,18.97-21.87,23.71-57.02,30.46-3.83,.73-6.59,4.07-6.59,7.97s2.76,7.24,6.59,7.97c46.52,8.93,55.3,14.35,63.91,53.86l-51.63,215.91c-2.73,11.41-13.04,20.02-24.08,20.02-2.79-.02-5.18-2.31-5.39-5.25-2.5-32.59-10.03-70.92-19.66-100.03-12.74-38.51-27.73-58.03-44.57-58.03s-31.82,19.52-44.57,58.03c-9.63,29.11-17.16,67.45-19.66,100.05-.21,2.92-2.58,5.21-5.49,5.23-10.94,0-21.25-8.61-24-20.02l-21.17-88.55c8.09-25.93,20.28-31.01,60.03-38.64,3.83-.73,6.59-4.08,6.59-7.97s-2.76-7.24-6.59-7.97c-51.08-9.81-56.67-15.39-66.47-66.47-.73-3.83-4.07-6.59-7.97-6.59s-7.24,2.76-7.97,6.59c-1.04,5.41-2.03,10.29-3.04,14.73l-8.83-36.97Zm3.44,84.23c5.16-4.58,9.21-10.18,12.57-17.24,1.38-2.91,2.65-6.06,3.83-9.5,7.36,21.32,17.88,31.84,39.19,39.19-14.39,4.97-23.87,11.38-30.77,21.58-3.31,4.9-6.04,10.68-8.43,17.62-2.32-6.74-4.97-12.41-8.17-17.23-6.92-10.42-16.45-16.94-31.03-21.97,9.52-3.29,16.9-7.21,22.8-12.45Z"/></svg>