<?xml version="1.0" encoding="UTF-8"?><svg id="a" xmlns="http://www.w3.org/2000/svg" viewBox="0 0 1080 1080"><defs><style>.b{fill:#346b91;}.c{fill:#494270;}.d{fill:#325b3d;}.e{fill:#2ab7c6;}</style></defs><polygon class="c" points="576.11 646.6 576.11 813.54 673 813.54 673 649.46 576.11 646.6"/><path class="d" d="M673.01,822.11h-96.9c-4.73,0-8.57-3.84-8.57-8.57v-160.67c0-4.73,3.84-8.57,8.57-8.57s8.57,3.84,8.57,8.57v152.09h79.75v-145.57c0-4.73,3.84-8.57,8.57-8.57s8.57,3.84,8.57,8.57v154.15c0,4.73-3.84,8.57-8.57,8.57Z"/><path class="b" d="M427.77,809.49h253.76c21.46,0,40.76,13.07,48.73,32.99h0c1.89,4.73-1.59,9.87-6.68,9.87H385.72c-5.09,0-8.57-5.14-6.68-9.87h0c7.97-19.93,27.27-32.99,48.73-32.99Z"/><path class="d" d="M723.58,860.93H385.72c-5.24,0-10.13-2.59-13.07-6.93-2.94-4.34-3.53-9.83-1.58-14.7,9.33-23.31,31.58-38.38,56.69-38.38h253.76c25.11,0,47.37,15.06,56.7,38.38,1.95,4.88,1.35,10.37-1.59,14.71-2.94,4.34-7.82,6.93-13.06,6.93Zm-1.28-15.27h0Zm-334.5-1.88h333.71c-7.12-15.69-22.6-25.72-39.98-25.72h-253.76c-17.38,0-32.85,10.03-39.97,25.72Z"/><rect class="c" x="607.71" y="492.28" width="65.09" height="84.3"/><rect class="e" x="492.25" y="468.7" width="222.91" height="35.01" rx="3.06" ry="3.06"/><path class="d" d="M697.66,512.28h-187.9c-14.38,0-26.08-11.7-26.08-26.08s11.7-26.08,26.08-26.08h187.9c14.38,0,26.08,11.7,26.08,26.08s-11.7,26.08-26.08,26.08Zm-187.9-35.01c-4.92,0-8.93,4.01-8.93,8.93s4.01,8.93,8.93,8.93h187.9c4.92,0,8.93-4.01,8.93-8.93s-4.01-8.93-8.93-8.93h-187.9Z"/><path class="d" d="M672.8,585.16h-65.1c-4.73,0-8.57-3.84-8.57-8.57v-72.87c0-4.73,3.84-8.57,8.57-8.57h65.1c4.73,0,8.57,3.84,8.57,8.57v72.87c0,4.73-3.84,8.57-8.57,8.57Zm-56.52-17.15h47.95v-55.73h-47.95v55.73Z"/><path class="b" d="M720.58,606.98l-19.89-27.93c22.81-16.25,97.24-76.35,97.24-167.79,0-70.44-33.21-115.68-61.07-141.23-43.43-39.82-103.5-59.63-164.73-54.3l-2.97-34.16c70.81-6.18,140.38,16.87,190.87,63.18,46.56,42.69,72.19,101.82,72.19,166.5,0,107.84-85.45,177.07-111.64,195.72Z"/><path class="d" d="M720.59,615.55c-2.68,0-5.31-1.25-6.99-3.6l-19.89-27.93c-2.75-3.86-1.85-9.21,2.01-11.96,21.96-15.65,93.64-73.48,93.64-160.81,0-67.32-31.7-110.53-58.29-134.91-41.68-38.22-99.33-57.14-158.19-52.08-2.25,.21-4.52-.51-6.26-1.98s-2.83-3.56-3.03-5.82l-2.97-34.16c-.41-4.72,3.08-8.87,7.79-9.28,73.21-6.37,145.12,17.45,197.42,65.41,48.35,44.33,74.97,105.7,74.97,172.82,0,111.94-88.21,183.45-115.24,202.7-1.51,1.08-3.24,1.59-4.97,1.59Zm-8.04-34.63l9.95,13.98c30.82-23.59,101.14-87.97,101.14-183.64,0-62.26-24.65-119.14-69.41-160.19-46.72-42.85-110.37-65.09-175.79-61.56l1.49,17.09c60.6-3,119.52,17.51,162.71,57.11,29.13,26.71,63.85,74,63.85,147.55,0,87.63-64.95,147.38-93.95,169.66Z"/><path class="e" d="M897.29,770.85c12.44-21.62,34.19-43.94,7.42-73.16-17.51-19.11-102.32-82.2-137.38-106.57-21.35-14.84-34.44-16.72-60.41-18.17-46.38-2.59-185.4-12.52-185.4-12.52-6.95-.31-13.6-2.92-18.9-7.43-24.4-20.72-104.97-94.79-135.84-107.1-37.36-14.89-69.3,16.62-79.96,27.6l198.75,150.37,245.2,18.44,166.51,128.53Z"/><path class="b" d="M735.42,673.72c-9.43-7.28-20.8-11.59-32.69-12.37-45.24-2.98-145.96-9.61-193.53-13.27-16.54-1.24-32.31-7.24-45.49-17.26l-173-131.38c-6.86-5.3-9.67-14.77-5.93-22.6,2.93-6.01,8.36-9.48,14.1-10.26,4.63-.59,9.45,.59,13.41,3.66l173.6,134.08c6.72,5.19,14.75,8.19,23.18,8.74l198.48,13.14c17.54,1.16,34.34,7.49,48.3,18.18l136.17,104.36c7.98,6.16,9.44,17.57,3.28,25.54-6.12,7.93-17.53,9.39-25.51,3.23l-134.38-103.78Z"/><path class="e" d="M560.48,160.41c-2.34-4.5-6.26-7.65-10.76-9.08-5.61-1.73-12.08-.86-17.33,3.41-6.78,5.6-8.23,15.51-4.19,23.3l45.61,86.19c3.67,6.93,11.4,10.69,19.12,9.29h0c11.92-2.16,18.34-15.24,12.76-25.99l-45.2-87.11Z"/><path class="e" d="M306.39,344.76c-25.59-40.3-60.43-43.05-83.81-30.54l63.08,118.63c23.38-12.51,46.2-48,20.73-88.09Z"/><path class="b" d="M291.59,409.64l-45.2-87.11c-2.34-4.5-6.26-7.65-10.76-9.08-5.61-1.73-12.08-.86-17.33,3.41-6.78,5.6-8.23,15.51-4.19,23.3l45.61,86.19c3.67,6.93,11.4,10.69,19.12,9.29,11.92-2.16,18.34-15.24,12.76-25.99Z"/><path class="d" d="M880.9,789.89c-5.89,0-11.59-1.94-16.34-5.6l-134.37-103.78c-8.11-6.26-17.8-9.93-28.01-10.6l-2.79-.18c-46.8-3.09-144.17-9.5-190.83-13.1-18.18-1.36-35.49-7.93-50.03-18.99l-172.99-131.38c-10.31-7.95-13.85-21.86-8.48-33.12,4.01-8.23,11.73-13.84,20.68-15.06,7.13-.93,14.15,1,19.81,5.37l173.59,134.07c5.33,4.12,11.73,6.54,18.5,6.98l198.48,13.14c19.3,1.28,37.6,8.17,52.94,19.93l136.17,104.36c11.72,9.05,13.88,25.9,4.86,37.59-4.37,5.65-10.68,9.26-17.77,10.16-1.14,.15-2.29,.22-3.43,.22ZM301.2,475c-.41,0-.81,.02-1.22,.08-3.24,.44-5.99,2.45-7.48,5.51-1.85,3.88-.38,9.09,3.46,12.05l172.94,131.35c11.9,9.05,26.06,14.42,40.95,15.54,46.58,3.59,143.89,10,190.66,13.08l2.79,.18c13.62,.9,26.55,5.79,37.37,14.14h0l134.37,103.78c2.04,1.58,4.57,2.29,7.13,1.95,2.53-.32,4.79-1.61,6.35-3.63,1.58-2.04,2.27-4.57,1.94-7.12-.32-2.55-1.63-4.82-3.68-6.4l-136.15-104.34c-12.65-9.69-27.74-15.37-43.64-16.42l-198.48-13.14c-10.19-.67-19.82-4.31-27.86-10.52l-173.6-134.07c-1.71-1.32-3.75-2.01-5.86-2.01Z"/><path class="d" d="M897.29,779.42c-1.45,0-2.92-.37-4.27-1.14-4.1-2.36-5.51-7.6-3.15-11.7,1.84-3.21,3.88-6.44,5.95-9.69,13.06-20.6,20.17-34.19,2.57-53.41-16.02-17.49-97.77-78.78-135.95-105.32-19.33-13.43-30.7-15.23-55.99-16.64-45.91-2.57-184.14-12.42-185.53-12.53-8.57-.38-17.12-3.74-23.84-9.44-4.44-3.77-10.72-9.29-18.22-15.88-31.92-28.05-91.33-80.26-115.24-89.79-21.89-8.72-45.66-.12-70.63,25.61-3.29,3.4-8.72,3.48-12.12,.18-3.39-3.3-3.48-8.72-.18-12.12,37.7-38.84,69.37-37.53,89.28-29.59,26.66,10.63,85.22,62.1,120.21,92.84,7.41,6.51,13.61,11.97,18,15.69,3.84,3.25,8.72,5.17,13.74,5.4,1.61,.11,139.71,9.95,185.49,12.51,27.59,1.55,42.06,3.87,64.82,19.69,32.97,22.92,119.97,87.24,138.81,107.82,27.36,29.87,11.12,55.47-.74,74.17-1.93,3.05-3.84,6.06-5.57,9.06-1.59,2.76-4.47,4.3-7.43,4.3Z"/><path class="d" d="M275.55,444.5c-9.71,0-18.74-5.31-23.42-14.15l-45.61-86.19c-6.04-11.66-3.38-25.9,6.31-33.91,7.18-5.83,16.61-7.68,25.33-5,6.91,2.19,12.51,6.92,15.84,13.32h0l45.2,87.12c3.93,7.56,4.02,16.29,.27,23.94s-10.72,12.91-19.11,14.43c-1.61,.3-3.21,.44-4.81,.44Zm-45.44-123.32c-2.28,0-4.52,.79-6.41,2.33-3.4,2.81-4.28,8.29-1.99,12.7l45.58,86.12c1.93,3.64,5.91,5.56,10.01,4.86,2.97-.54,5.44-2.41,6.77-5.12,1.33-2.71,1.3-5.8-.09-8.48l-45.2-87.12h0c-1.22-2.34-3.26-4.07-5.74-4.86-.97-.3-1.95-.44-2.92-.44Z"/><path class="d" d="M589.64,282.39c-9.72,0-18.75-5.31-23.43-14.15l-45.61-86.19c-6.04-11.66-3.38-25.9,6.31-33.91,7.18-5.84,16.64-7.68,25.33-4.99,6.91,2.19,12.51,6.91,15.83,13.31h0l45.2,87.12c3.92,7.56,4.02,16.29,.27,23.94-3.76,7.65-10.72,12.91-19.1,14.43-1.61,.3-3.22,.44-4.81,.44Zm-45.45-123.33c-2.28,0-4.52,.8-6.41,2.34-3.4,2.81-4.28,8.29-1.99,12.7l45.58,86.12c1.93,3.64,5.93,5.57,10.01,4.86,2.97-.54,5.44-2.41,6.77-5.12,1.33-2.71,1.3-5.8-.09-8.49l-45.2-87.11h0c-1.22-2.34-3.25-4.06-5.74-4.85-.97-.3-1.95-.45-2.92-.45Z"/><path class="d" d="M285.66,441.42c-3.06,0-6.02-1.64-7.56-4.53-2.24-4.18-.66-9.37,3.52-11.6,9.67-5.17,21.53-16.52,25.82-32.83,3.71-14.11,.92-28.62-8.28-43.11-23.22-36.57-53.58-37.71-72.53-27.58-4.18,2.24-9.37,.66-11.6-3.51-2.24-4.18-.66-9.37,3.51-11.6,27.44-14.69,67.46-10,95.1,33.51,11.69,18.41,15.29,38.01,10.39,56.65-4.76,18.11-17.91,34.81-34.32,43.59-1.28,.69-2.67,1.02-4.04,1.02Z"/></svg>